<?xml version="1.0" encoding="utf-8"?>
<!-- Generator: Adobe Illustrator 19.0.0, SVG Export Plug-In . SVG Version: 6.00 Build 0)  -->
<svg version="1.1" id="Layer_1" xmlns="http://www.w3.org/2000/svg" xmlns:xlink="http://www.w3.org/1999/xlink" x="0px" y="0px"
	 viewBox="0 0 163 33" style="enable-background:new 0 0 163 33;" xml:space="preserve" width="163px" height="33px">
<style type="text/css">
	.st0{fill:#4B4C4C;}
	.st1{fill:#15A1DC;}
</style>
<g>
	<path id="XMLID_15_" class="st0" d="M17.2,2.9H20v12.3c0,2.2-0.3,3.8-0.7,5.1c-0.5,1.3-1.4,2.3-2.6,3.1c-1.3,0.8-2.9,1.2-5,1.2
		c-2,0-3.6-0.4-4.9-1c-1.3-0.7-2.2-1.7-2.7-3s-0.8-3.1-0.8-5.3V2.9H6v12.3c0,1.8,0.2,3.2,0.5,4.1c0.4,0.9,0.9,1.5,1.8,2.1
		c0.8,0.5,1.8,0.7,3.1,0.7c2.1,0,3.5-0.5,4.4-1.4c0.9-0.9,1.3-2.8,1.3-5.4V2.9z"/>
	<path id="XMLID_14_" class="st0" d="M24.4,24.3V8.8h2.4V11c1.1-1.7,2.8-2.6,4.9-2.6c0.9,0,1.8,0.2,2.6,0.5c0.8,0.4,1.4,0.8,1.7,1.3
		c0.4,0.6,0.7,1.2,0.8,1.9c0.1,0.5,0.2,1.3,0.2,2.6v9.5h-2.6v-9.4c0-1.1-0.1-1.8-0.3-2.4c-0.2-0.5-0.6-1-1.1-1.3
		c-0.5-0.3-1.1-0.5-1.8-0.5c-1.1,0-2.1,0.4-2.9,1.1c-0.8,0.7-1.2,2.1-1.2,4.1v8.4C27,24.3,24.4,24.3,24.4,24.3z"/>
	<path class="st0" d="M41,6v-3h2.6v3H41z M41,24.3V8.8h2.6v15.4H41z"/>
	<path id="XMLID_11_" class="st0" d="M48.2,24.3V10.9h-2.3V8.8h2.3V7.2c0-1,0.1-1.8,0.3-2.3c0.3-0.7,0.7-1.2,1.3-1.6
		s1.5-0.6,2.7-0.6c0.7,0,1.5,0.1,2.5,0.3l-0.4,2.3C53.9,5.1,53.4,5,53,5c-0.8,0-1.3,0.2-1.7,0.5c-0.3,0.4-0.5,1-0.5,1.9v1.4h3v2.1
		h-3v13.4L48.2,24.3L48.2,24.3z"/>
	<path id="XMLID_10_" class="st0" d="M55.7,30.2l-0.3-2.5c0.6,0.2,1.1,0.3,1.5,0.3c0.6,0,1-0.1,1.4-0.3c0.4-0.2,0.6-0.5,0.9-0.8
		c0.2-0.3,0.4-0.9,0.8-1.9c0.1-0.2,0.1-0.4,0.3-0.6L54.4,8.8h2.8l3.2,8.9c0.4,1.1,0.8,2.3,1.1,3.6c0.3-1.2,0.7-2.4,1.1-3.5l3.3-9
		h2.6l-5.9,15.7c-0.6,1.7-1.1,2.9-1.5,3.5c-0.5,0.9-1,1.5-1.6,1.9c-0.6,0.4-1.3,0.6-2.2,0.6C56.9,30.5,56.3,30.4,55.7,30.2z"/>
	<path id="XMLID_9_" class="st1" d="M86.2,16.8l2.8,0.7c-0.6,2.3-1.6,4.1-3.2,5.3c-1.5,1.2-3.4,1.8-5.6,1.8c-2.3,0-4.2-0.5-5.6-1.4
		c-1.4-0.9-2.5-2.3-3.3-4.1c-0.8-1.8-1.1-3.7-1.1-5.7c0-2.2,0.4-4.2,1.3-5.8c0.9-1.6,2.1-2.9,3.6-3.7c1.6-0.9,3.3-1.3,5.2-1.3
		c2.2,0,3.9,0.6,5.4,1.6c1.4,1.1,2.5,2.6,3,4.6L86,9.6c-0.5-1.5-1.2-2.7-2.2-3.4c-0.9-0.7-2.1-1.1-3.5-1.1c-1.6,0-3,0.4-4.1,1.2
		s-1.9,1.8-2.3,3.2c-0.5,1.3-0.7,2.7-0.7,4.1c0,1.8,0.3,3.4,0.8,4.8c0.5,1.3,1.3,2.4,2.5,3c1.1,0.7,2.3,1,3.6,1c1.6,0,2.9-0.5,4-1.4
		C85.1,20,85.9,18.6,86.2,16.8z"/>
	<path id="XMLID_8_" class="st1" d="M92.2,24.3V2.9h2.6v21.3H92.2z"/>
	<path class="st1" d="M97.9,16.6c0-2.9,0.8-5,2.4-6.4c1.3-1.1,2.9-1.7,4.9-1.7c2.1,0,3.8,0.7,5.2,2.1c1.3,1.4,2,3.3,2,5.7
		c0,2-0.3,3.5-0.9,4.7c-0.6,1.1-1.5,2-2.6,2.7c-1.1,0.6-2.4,0.9-3.7,0.9c-2.2,0-3.9-0.7-5.2-2.1C98.6,21.2,97.9,19.2,97.9,16.6z
		 M100.6,16.6c0,2,0.4,3.4,1.3,4.5c0.9,1,1.9,1.5,3.3,1.5c1.3,0,2.4-0.5,3.2-1.5c0.9-1,1.3-2.5,1.3-4.5c0-1.9-0.4-3.3-1.3-4.4
		c-0.9-1-1.9-1.5-3.2-1.5c-1.3,0-2.4,0.5-3.3,1.5C101,13.1,100.6,14.6,100.6,16.6z"/>
	<path id="XMLID_5_" class="st1" d="M125.5,24.3V22c-1.2,1.7-2.8,2.6-4.9,2.6c-0.9,0-1.7-0.2-2.6-0.5c-0.8-0.4-1.4-0.8-1.7-1.3
		c-0.4-0.5-0.7-1.2-0.8-1.9c-0.1-0.5-0.2-1.3-0.2-2.5V8.8h2.6v8.6c0,1.4,0.1,2.3,0.2,2.8c0.2,0.7,0.5,1.2,1,1.6
		c0.5,0.4,1.2,0.6,2,0.6c0.8,0,1.5-0.2,2.2-0.6c0.7-0.4,1.2-1,1.4-1.6c0.3-0.7,0.4-1.7,0.4-3V8.8h2.6v15.4H125.5z"/>
	<path class="st1" d="M142,24.3v-1.9c-1,1.5-2.4,2.3-4.3,2.3c-1.2,0-2.4-0.4-3.4-1c-1-0.7-1.8-1.6-2.4-2.8c-0.6-1.2-0.9-2.6-0.9-4.2
		c0-1.5,0.3-2.9,0.8-4.2c0.5-1.2,1.3-2.2,2.3-2.9c1-0.7,2.2-1,3.4-1c0.9,0,1.7,0.2,2.5,0.6c0.7,0.4,1.3,0.9,1.8,1.5V2.9h2.6v21.3
		H142z M133.7,16.6c0,2,0.4,3.4,1.2,4.4c0.8,1,1.8,1.5,3,1.5c1.1,0,2.1-0.5,2.9-1.4c0.8-0.9,1.2-2.4,1.2-4.3c0-2.1-0.4-3.6-1.2-4.7
		c-0.8-1-1.8-1.5-3-1.5c-1.2,0-2.2,0.5-2.9,1.4C134.1,13,133.7,14.5,133.7,16.6z"/>
</g>
<g>
	<path id="XMLID_2_" class="st1" d="M149.5,8.7V2.9h-2.2V2.1h5.3v0.8h-2.2v5.8C150.4,8.7,149.5,8.7,149.5,8.7z"/>
	<path id="XMLID_1_" class="st1" d="M153.4,8.7V2.1h1.3l1.6,4.7c0.2,0.5,0.3,0.8,0.3,1c0.1-0.3,0.2-0.6,0.4-1.1l1.6-4.6h1.2v6.7
		h-0.9V3.2L157,8.7h-0.8L154.3,3v5.6L153.4,8.7L153.4,8.7z"/>
</g>
</svg>
